inDegrees=no
num_controls=7
num_derivatives=13
num_iterations=102
num_multipliers=7
num_parameters=0
num_slacks=7
num_states=26
objective=0.545668
objective_accelerations=0.041239
objective_balance=0.003710
objective_effort=0.040157
objective_height=0.451140
objective_ligament=0.009422
solver_duration=1222.091538
status=Solve_Succeeded
success=true
DataType=double
version=3
OpenSimVersion=4.5
endheader
time	/jointset/ground_pelvis/pelvis_tilt/value	/jointset/ground_pelvis/pelvis_tx/value	/jointset/ground_pelvis/pelvis_ty/value	/jointset/hip_r/hip_flexion_r/value	/jointset/hip_r/hip_adduction_r/value	/jointset/hip_r/hip_rotation_r/value	/jointset/back/lumbar_extension/value	/jointset/patellofemoral_r/patellar_flexion_r/value	/jointset/knee_r/knee_flexion_r/value	/jointset/knee_r/knee_adduction_r/value	/jointset/knee_r/knee_rotation_r/value	/jointset/ankle_r/ankle_angle_r/value	/jointset/subtalar_r/subtalar_angle_r/value	/jointset/ground_pelvis/pelvis_tilt/speed	/jointset/ground_pelvis/pelvis_tx/speed	/jointset/ground_pelvis/pelvis_ty/speed	/jointset/hip_r/hip_flexion_r/speed	/jointset/hip_r/hip_adduction_r/speed	/jointset/hip_r/hip_rotation_r/speed	/jointset/back/lumbar_extension/speed	/jointset/patellofemoral_r/patellar_flexion_r/speed	/jointset/knee_r/knee_flexion_r/speed	/jointset/knee_r/knee_adduction_r/speed	/jointset/knee_r/knee_rotation_r/speed	/jointset/ankle_r/ankle_angle_r/speed	/jointset/subtalar_r/subtalar_angle_r/speed	/forceset/tau_hip_flexion_r	/forceset/tau_hip_adduction_r	/forceset/tau_hip_rotation_r	/forceset/tau_knee_flexion_r	/forceset/tau_ankle_angle_r	/forceset/tau_subtalar_angle_r	/forceset/tau_lumbar_extension	lambda_cid13_p0	lambda_cid14_p0	lambda_cid14_p1	lambda_cid14_p2	lambda_cid14_p3	lambda_cid14_p4	lambda_cid14_p5	/jointset/ground_pelvis/pelvis_tilt/accel	/jointset/ground_pelvis/pelvis_tx/accel	/jointset/ground_pelvis/pelvis_ty/accel	/jointset/hip_r/hip_flexion_r/accel	/jointset/hip_r/hip_adduction_r/accel	/jointset/hip_r/hip_rotation_r/accel	/jointset/back/lumbar_extension/accel	/jointset/patellofemoral_r/patellar_flexion_r/accel	/jointset/knee_r/knee_flexion_r/accel	/jointset/knee_r/knee_adduction_r/accel	/jointset/knee_r/knee_rotation_r/accel	/jointset/ankle_r/ankle_angle_r/accel	/jointset/subtalar_r/subtalar_angle_r/accel	gamma_cid13_p0	gamma_cid14_p0	gamma_cid14_p1	gamma_cid14_p2	gamma_cid14_p3	gamma_cid14_p4	gamma_cid14_p5
0	-0.006515214589430877	0.09626020792552295	0.9427241057263753	0.1762555222360518	-0.2321523908042762	-0.2616405685370339	-0.038598046466844	0.07317863873450919	0.07317863873451017	0.1745321270641069	0.1745327430707132	0.03247278518263602	-0.003451656261473208	0	0	0	0	0	0	0	0	0	0	0	0	0	0.2247327112883678	-0.1420683048131267	-0.0409164750234346	-0.3828905133581466	0.3476768996945193	-0.1481426782590491	-0.1249066797847354	-39.07577082226178	61.07013859824869	-43.68730338943315	-3.949652232659009	-9.919015919806142	-681.68910645315	48.39117435968669	-2.740452039657247	-1.693113298309491	-0.6662542233187213	10.14127881066758	0.2874169481406148	2.253233388350357	-5.373729196753502	8.665593841361888	8.665593841362661	-2.927849661096801	0.1475367331817957	2.053033900645402	0.7581382268686292	8.960261327364343e-08	6.401176226092056e-08	-5.691054439567523e-07	1.711790047750647e-07	1.733783904181315e-08	8.783781806855805e-08	-2.576917370211511e-07
0.01	-0.006645876533780818	0.09617847907810961	0.9426920208017756	0.1767460522853898	-0.2321369522808434	-0.2615199080160759	-0.03886950345218341	0.07359930237034416	0.07359930237034609	0.1743860912465966	0.1745286681185604	0.03257452339700776	-0.003412924452621717	-0.0261039748299943	-0.01608618642294764	-0.006399690496605034	0.09752770651720143	0.00302528696256516	0.02399855377450012	-0.05396114553203178	0.08376417087018352	0.08376417087018005	-0.02896351866069432	-0.000778668655601986	0.02047061524797745	0.007710629015446121	0.2281819318268298	-0.1581376994669247	-0.04245103663509055	-0.3949707738618519	0.3665472686322672	-0.1394854292468768	-0.126374009462022	-39.08973383672016	67.52545938621658	-38.88509323449581	-4.614839642800293	-16.69691745276187	-682.4050696872855	58.71850924645037	-2.5411036867604	-1.527430387063009	-0.6242147317888406	9.471776691790797	0.3006575683213356	2.453176695911081	-5.357769501494882	8.176527344939258	8.17652734493859	-2.844129734937339	-0.1850685955537461	2.062538655921637	0.7720948836769869	1.230862632416579e-07	6.775197496839855e-08	-7.78760178157571e-07	1.68387368323457e-07	4.824517471183369e-08	-9.781064299991956e-08	-3.13867428288214e-07
0.02	-0.007036724922841426	0.0959436765519124	0.942596461318418	0.1781945114238192	-0.2320931462881833	-0.2611632598925905	-0.03967066434685518	0.07484654744188919	0.07484654744188889	0.1739577148892021	0.1745179064937651	0.03288466042766958	-0.00329817242465679	-0.05203728894359468	-0.03061473575677581	-0.01269491175161219	0.1915858178161887	0.005673493845407661	0.0471975205054468	-0.1059407818667698	0.1653162871440751	0.1653162871440763	-0.05646810797665068	-0.001337334536105062	0.04167976325786657	0.01520404382266776	0.2316311523653066	-0.1742070941207256	-0.04398559824668213	-0.4070510343655867	0.3854176375700006	-0.1308281802347116	-0.1278413391392803	-39.13092685647157	74.0574007639202	-34.09032264232538	-5.255016177715144	-23.58434567750025	-681.9022181702567	68.81485222343717	-2.706319896378694	-1.381585880485348	-0.6453603749991537	9.447359767024688	0.2120009321960622	2.093315979639621	-4.977427357294895	8.223182922103497	8.22318292210589	-2.636063792149161	0.1915372882016395	2.200740453028019	0.7146953852237764	1.565699132096723e-07	7.149218767587654e-08	-9.884149123583896e-07	1.655957318718494e-07	7.915251038185422e-08	-2.834591040683972e-07	-3.700431195552769e-07
0.03	-0.007685567020554411	0.09556958163777952	0.942438189564949	0.1805680762663564	-0.2320249769635788	-0.2605806272132389	-0.04098039002031454	0.07689906306700481	0.07689906306700602	0.1732621890467849	0.1745045423687651	0.03340848240949362	-0.003110272177375399	-0.07759932673550198	-0.04412174034296067	-0.01896040593878608	0.282656303024331	0.00789593716298527	0.06921624290218795	-0.1555975438802207	0.2448232866735137	0.2448232866735053	-0.08237743064305628	-0.00134741631130898	0.06299181929955489	0.02228856818457946	0.2245610070288523	-0.1858794263188965	-0.04214034511082329	-0.3993900690128448	0.3724509548566537	-0.1149299901553523	-0.1221258649740399	-39.19833928661715	70.5861962775483	-27.90625374846805	-6.112159356650305	-22.31055133185464	-680.9970102014046	80.11257011186348	-2.461357659131175	-1.322865782601962	-0.6173464319988682	8.866277328062187	0.2175792428408423	2.239285660987445	-4.898779282051623	7.759894338353725	7.759894338350797	-2.529563100517605	-0.09900255401944048	2.082548832821633	0.692077356241567	1.712957224155648e-07	7.257974756402075e-08	-1.073428237894914e-06	1.792113675353346e-07	9.292765050078538e-08	-3.876573053398806e-07	-4.074744922304142e-07
0.04	-0.008586071883886975	0.09506289507080207	0.9422172223713231	0.1838382228470484	-0.2319365405635384	-0.2597811802516605	-0.04277447904564561	0.07973573586140567	0.07973573586140428	0.1723153306583873	0.1744907330972867	0.03414264708235069	-0.002854177407561441	-0.1023698420687993	-0.05713306632569105	-0.02523399978297424	0.3709021654466068	0.009726908932651563	0.09056037695077065	-0.2028134522409592	0.3221477210025406	0.3221477210025098	-0.1067346171747164	-0.001426363832033239	0.08374830146454193	0.02884294832916024	0.2174908616923611	-0.1975517585170585	-0.04029509197494274	-0.3917291036601334	0.359484272143298	-0.09903180007598589	-0.116410390808823	-39.2906901589408	67.18484399343339	-21.7216639275971	-6.956008608197281	-21.15280300479055	-679.0086538380316	91.21432233863351	-2.5480154046569	-1.282450159794213	-0.6469803064020127	8.882435209851318	0.1337066226137822	1.958398310007879	-4.489256626752559	7.786669882021164	7.786669882021005	-2.325636565200026	0.1777641390976356	2.089625677688034	0.6086665417576391	1.856347720181145e-07	7.361261357960138e-08	-1.155871637479597e-06	1.931652974692341e-07	1.063495494743333e-07	-4.901761198114261e-07	-4.445193841098416e-07
0.05	-0.009730807432663757	0.09442823622617318	0.9419332681568926	0.1879780253217275	-0.2318314978653621	-0.2587738332271607	-0.04502883323743479	0.08333565737799158	0.0833356573779942	0.1711322406220889	0.1744778660851319	0.03508146057228153	-0.002534910032917827	-0.126444610269665	-0.06974662768122229	-0.03157107271775029	0.4566217481142483	0.01123692755903226	0.1107833738080111	-0.2477289477218803	0.3974610404442079	0.3974610404442001	-0.1296480849035563	-0.001172259886724928	0.1038794401249048	0.03493527584999717	0.2097916615293201	-0.1803627468194837	-0.03848794336566181	-0.3834632222674745	0.3508919199408884	-0.1088135445658025	-0.1103929373181446	-39.40644009783392	64.17456681937696	-26.5129937639663	-6.173818021779248	-19.30514148557598	-677.3272985066473	80.05868231936738	-2.317284974924879	-1.242976506578674	-0.6293040928839042	8.351246793582185	0.1528072934755629	2.035462098564815	-4.443430249942908	7.347294451870279	7.347294451873854	-2.239069292231808	-0.05447211391322927	1.954652761469167	0.5980673944600932	1.767818350965621e-07	6.505429459181815e-08	-1.0838110677993e-06	1.807285453730503e-07	1.076542197239115e-07	-5.556858277832339e-07	-4.213942960395503e-07
0.06	-0.01111230615286739	0.09366900829136038	0.94158549655194	0.1929619290227611	-0.2317127234187568	-0.2575680138890922	-0.04772248923226929	0.08767743838431728	0.08767743838431828	0.1697270424254035	0.1744667989851936	0.03621754440906776	-0.002157009075623072	-0.1497224763554811	-0.08204688436247402	-0.03799747788738737	0.5397224107163606	0.01247325861842799	0.1302548396645581	-0.2906738128500704	0.4705196189511065	0.4705196189511227	-0.1511562492526296	-0.001066381387842391	0.1232023708356204	0.04056966485936983	0.2020924613662679	-0.1631737351219052	-0.03668079475638111	-0.3751973408748331	0.3422995677384708	-0.1185952890556168	-0.1043754838274673	-39.54375052687607	61.22670699266201	-31.31565073339077	-5.364398852610018	-17.55392060889201	-674.6460999971473	68.69657965413522	-2.388634981647162	-1.21978922493808	-0.6648467533742245	8.358651196745459	0.07896910921677164	1.808092109869152	-4.095130556206461	7.335721695067416	7.335721695067464	-2.044575889246659	0.1481190498125262	1.927984087758863	0.5170788394648299	1.669523934792581e-07	5.609213623547224e-08	-1.005245067834163e-06	1.671806066650734e-07	1.084486908693225e-07	-6.196372575866316e-07	-3.957357351292708e-07
